<svg width="48" height="48" viewBox="0 0 48 48" fill="none" xmlns="http://www.w3.org/2000/svg">
<rect width="48" height="48" rx="10" fill="#1E4A1E"/>
<path d="M25.2578 23.5L25.2578 24L25.258 24L25.2578 23.5ZM28.7627 24.8271L29.0939 24.4526L29.0938 24.4525L28.7627 24.8271ZM30.5117 28.1445L31.0079 28.0826L31.0079 28.0826L30.5117 28.1445ZM31.5293 36.3027L31.0331 36.3646C31.0644 36.6149 31.2771 36.8027 31.5293 36.8027V36.3027ZM37.3027 36.3027L37.3027 36.8027L37.3027 36.8027L37.3027 36.3027ZM38.4365 36.0527L38.647 36.5063L38.6472 36.5062L38.4365 36.0527ZM39.3594 35.3486L39.7411 35.6716L39.7412 35.6714L39.3594 35.3486ZM39.9023 34.3193L40.3844 34.4519L40.3845 34.4518L39.9023 34.3193ZM39.9619 33.1572L39.4687 33.2393L39.4687 33.2393L39.9619 33.1572ZM39.4297 29.957L39.9229 29.875L39.9229 29.8749L39.4297 29.957ZM38.5127 28.3398L38.8362 27.9586L38.8361 27.9585L38.5127 28.3398ZM36.7705 27.7002L36.7705 27.2002H36.7705V27.7002ZM35.7822 27.2002L35.2822 27.1999V27.2002H35.7822ZM36.7705 26.7002L36.7705 27.2002L36.7705 27.2002L36.7705 26.7002ZM39.1602 27.5771L39.4836 27.1959L39.4836 27.1959L39.1602 27.5771ZM40.416 29.792H40.916C40.916 29.7644 40.9137 29.7369 40.9092 29.7098L40.416 29.792ZM40.416 29.793H39.916C39.916 29.8205 39.9183 29.8479 39.9228 29.875L40.416 29.793ZM40.9482 32.9932L40.455 33.0752L40.455 33.0753L40.9482 32.9932ZM40.8662 34.585L41.3483 34.7176L41.3483 34.7175L40.8662 34.585ZM40.123 35.9941L40.5048 36.317L40.5049 36.317L40.123 35.9941ZM38.8574 36.96L39.0679 37.4135L39.068 37.4135L38.8574 36.96ZM37.5039 37.2979L37.516 37.7977C37.5211 37.7976 37.5261 37.7974 37.5312 37.7971L37.5039 37.2979ZM37.3027 37.3027V37.8029L37.3149 37.8026L37.3027 37.3027ZM31.5283 37.3027V36.8027C31.2782 36.8027 31.0665 36.9876 31.0329 37.2355L31.5283 37.3027ZM31.3984 37.8955L31.8762 38.0429L31.8762 38.0428L31.3984 37.8955ZM30.6377 39.2529L31.0127 39.5836L31.0128 39.5836L30.6377 39.2529ZM29.3867 40.1768L29.5925 40.6324L29.5925 40.6324L29.3867 40.1768ZM27.8672 40.5039L27.8672 40.0039H27.8672V40.5039ZM19.1309 40.5039L19.1309 40.0039L19.1305 40.0039L19.1309 40.5039ZM17.6104 40.1777L17.4047 40.6335L17.4047 40.6335L17.6104 40.1777ZM16.3584 39.2539L15.9834 39.5846L15.9835 39.5847L16.3584 39.2539ZM15.5977 37.8955L15.1199 38.0429L15.1199 38.0429L15.5977 37.8955ZM15.4678 37.3027L15.9632 37.235C15.9293 36.9873 15.7177 36.8027 15.4678 36.8027V37.3027ZM9.69629 37.3027L9.69629 36.8027L9.69623 36.8027L9.69629 37.3027ZM8.1416 36.96L7.9311 37.4135L7.93114 37.4135L8.1416 36.96ZM6.87598 35.9941L6.4942 36.317L6.49425 36.3171L6.87598 35.9941ZM6.13281 34.585L5.6507 34.7175L5.65072 34.7176L6.13281 34.585ZM6.05078 32.9932L6.54399 33.0753L6.54403 33.075L6.05078 32.9932ZM6.58203 29.793L7.07528 29.8749C7.07977 29.8478 7.08203 29.8204 7.08203 29.793H6.58203ZM6.58203 29.792L6.08884 29.7098C6.08431 29.7369 6.08203 29.7644 6.08203 29.792H6.58203ZM7.83887 27.5771L7.51546 27.1958L7.51541 27.1959L7.83887 27.5771ZM10.2285 26.7002L10.2285 27.2002H10.2285V26.7002ZM10.7168 26.7002L10.7172 26.2002H10.7168V26.7002ZM11.2168 27.2002L11.7168 27.2002L11.7168 27.1999L11.2168 27.2002ZM10.7168 27.7002L10.7168 28.2002L10.7172 28.2002L10.7168 27.7002ZM10.2275 27.7002L10.2275 27.2002L10.2275 27.2002L10.2275 27.7002ZM8.48633 28.3398L8.16299 27.9585L8.16287 27.9586L8.48633 28.3398ZM7.56836 29.957L7.07516 29.8749L7.07511 29.8751L7.56836 29.957ZM7.03711 33.1572L7.53032 33.2393L7.53036 33.2391L7.03711 33.1572ZM7.09668 34.3193L6.61456 34.4518L6.61458 34.4519L7.09668 34.3193ZM7.63867 35.3486L7.2569 35.6715L7.25691 35.6715L7.63867 35.3486ZM8.5625 36.0527L8.35198 36.5063L8.35204 36.5063L8.5625 36.0527ZM9.69629 36.3027L9.69629 35.8027L9.69623 35.8027L9.69629 36.3027ZM15.4658 36.3027V36.8027C15.718 36.8027 15.9307 36.615 15.962 36.3647L15.4658 36.3027ZM16.4854 28.1436L16.9815 28.2056L16.9815 28.2055L16.4854 28.1436ZM18.2334 24.8281L17.9021 24.4536L17.9021 24.4537L18.2334 24.8281ZM21.7363 23.5L21.7363 23L21.7362 23L21.7363 23.5ZM21.7363 24.5L21.7363 24L21.7362 24L21.7363 24.5ZM18.8965 25.5771L18.5652 25.2026L18.5652 25.2027L18.8965 25.5771ZM17.4775 28.2676L17.9737 28.3296L17.9737 28.3295L17.4775 28.2676ZM16.4531 36.4688L15.957 36.4068L15.957 36.407L16.4531 36.4688ZM16.5527 37.6006L16.0749 37.7479L16.075 37.748L16.5527 37.6006ZM17.1084 38.5918L16.7334 38.9225L16.7334 38.9225L17.1084 38.5918ZM18.0215 39.2666L17.8158 39.7224L17.8159 39.7224L18.0215 39.2666ZM19.1299 39.5039L19.1299 39.0039L19.1296 39.0039L19.1299 39.5039ZM27.8672 39.5039L27.8673 39.0039H27.8672V39.5039ZM28.9756 39.2656L29.1814 39.7213L29.1815 39.7213L28.9756 39.2656ZM29.8877 38.5918L30.2627 38.9225L30.2628 38.9224L29.8877 38.5918ZM30.4434 37.6006L30.9212 37.7479L30.9212 37.7479L30.4434 37.6006ZM30.542 36.4688L31.0382 36.4069L31.0382 36.4069L30.542 36.4688ZM29.5195 28.2676L30.0157 28.2057L30.0157 28.2056L29.5195 28.2676ZM28.0996 25.5762L28.4308 25.2016L28.4307 25.2015L28.0996 25.5762ZM25.4541 24.5049L25.4768 24.0053L25.4665 24.005L25.4541 24.5049ZM25.2578 24.5L25.2703 24H25.2578V24.5ZM10.7168 15.4971L10.7169 14.9971L10.7168 14.9971L10.7168 15.4971ZM14.4121 19.1982L14.9121 19.1983V19.1982H14.4121ZM10.7168 22.8984L10.7168 23.3984L10.7169 23.3984L10.7168 22.8984ZM7.02148 19.1982L6.52148 19.1982L6.52148 19.1983L7.02148 19.1982ZM36.2812 15.4971L36.2813 14.9971L36.2812 14.9971L36.2812 15.4971ZM39.9766 19.1982L40.4766 19.1983V19.1982H39.9766ZM36.2812 22.8984L36.2812 23.3984L36.2813 23.3984L36.2812 22.8984ZM32.5859 19.1982L32.0859 19.1982L32.0859 19.1983L32.5859 19.1982ZM10.7168 16.4971L10.7169 15.9971L10.7168 15.9971L10.7168 16.4971ZM8.02148 19.1982L7.52148 19.1982L7.52148 19.1983L8.02148 19.1982ZM10.7168 21.8984L10.7168 22.3984L10.7169 22.3984L10.7168 21.8984ZM13.4121 19.1982L13.9121 19.1983V19.1982H13.4121ZM36.2812 16.4971L36.2813 15.9971L36.2812 15.9971L36.2812 16.4971ZM33.5859 19.1982L33.0859 19.1982L33.0859 19.1983L33.5859 19.1982ZM36.2812 21.8984L36.2812 22.3984L36.2813 22.3984L36.2812 21.8984ZM38.9766 19.1982L39.4766 19.1983V19.1982H38.9766ZM23.498 7.49512L23.498 6.99512L23.498 6.99512L23.498 7.49512ZM28.792 12.7969L29.292 12.7969V12.7969H28.792ZM23.498 18.0977L23.498 18.5977H23.498V18.0977ZM18.2051 12.7969L17.7051 12.7969L17.7051 12.7969L18.2051 12.7969ZM23.498 8.49512L23.498 7.99512L23.498 7.99512L23.498 8.49512ZM19.2051 12.7969L18.7051 12.7969L18.7051 12.797L19.2051 12.7969ZM23.498 17.0977L23.498 17.5977H23.498V17.0977ZM27.792 12.7969L28.292 12.797V12.7969H27.792ZM25.2578 23.5L25.258 24C26.4265 23.9996 27.5553 24.4272 28.4315 25.2018L28.7627 24.8271L29.0938 24.4525C28.035 23.5166 26.6706 22.9995 25.2576 23L25.2578 23.5ZM28.7627 24.8271L28.4315 25.2017C29.3074 25.9762 29.8707 27.045 30.0156 28.2064L30.5117 28.1445L31.0079 28.0826C30.8329 26.6799 30.1526 25.3886 29.0939 24.4526L28.7627 24.8271ZM30.5117 28.1445L30.0156 28.2064L31.0331 36.3646L31.5293 36.3027L32.0255 36.2408L31.0079 28.0826L30.5117 28.1445ZM31.5293 36.3027V36.8027H37.3027V36.3027V35.8027H31.5293V36.3027ZM37.3027 36.3027L37.3027 36.8027C37.7664 36.8027 38.2257 36.7018 38.647 36.5063L38.4365 36.0527L38.226 35.5992C37.9372 35.7333 37.6216 35.8027 37.3027 35.8027L37.3027 36.3027ZM38.4365 36.0527L38.6472 36.5062C39.0677 36.3109 39.4413 36.0259 39.7411 35.6716L39.3594 35.3486L38.9777 35.0257C38.7716 35.2692 38.5148 35.4651 38.2259 35.5993L38.4365 36.0527ZM39.3594 35.3486L39.7412 35.6714C40.0408 35.3171 40.2611 34.9004 40.3844 34.4519L39.9023 34.3193L39.4202 34.1868C39.3356 34.4947 39.1839 34.7817 38.9775 35.0258L39.3594 35.3486ZM39.9023 34.3193L40.3845 34.4518C40.5077 34.0034 40.5314 33.5331 40.4551 33.0751L39.9619 33.1572L39.4687 33.2393C39.5213 33.5551 39.5048 33.879 39.4202 34.1869L39.9023 34.3193ZM39.9619 33.1572L40.4551 33.0752L39.9229 29.875L39.4297 29.957L38.9365 30.0391L39.4687 33.2393L39.9619 33.1572ZM39.4297 29.957L39.9229 29.8749C39.7984 29.1277 39.4134 28.4483 38.8362 27.9586L38.5127 28.3398L38.1892 28.7211C38.5857 29.0575 38.8508 29.5249 38.9365 30.0392L39.4297 29.957ZM38.5127 28.3398L38.8361 27.9585C38.259 27.469 37.5267 27.2002 36.7705 27.2002L36.7705 27.7002L36.7705 28.2002C37.2896 28.2002 37.7927 28.3848 38.1893 28.7211L38.5127 28.3398ZM36.7705 27.7002V27.2002H36.2822V27.7002V28.2002H36.7705V27.7002ZM36.2822 27.7002V27.2002H35.7822H35.2822C35.2822 27.7525 35.7299 28.2002 36.2822 28.2002V27.7002ZM35.7822 27.2002L36.2822 27.2005L36.2822 27.2002V26.7002V26.2002C35.7298 26.2002 35.2825 26.6482 35.2822 27.1999L35.7822 27.2002ZM36.2822 26.7002V27.2002H36.7705V26.7002V26.2002H36.2822V26.7002ZM36.7705 26.7002L36.7705 27.2002C37.527 27.2002 38.2597 27.4689 38.8367 27.9584L39.1602 27.5771L39.4836 27.1959C38.7258 26.553 37.7638 26.2002 36.7705 26.2002L36.7705 26.7002ZM39.1602 27.5771L38.8367 27.9584C39.4135 28.4478 39.7983 29.1269 39.9228 29.8742L40.416 29.792L40.9092 29.7098C40.7459 28.73 40.2413 27.8387 39.4836 27.1959L39.1602 27.5771ZM40.416 29.792H39.916V29.793H40.416H40.916V29.792H40.416ZM40.416 29.793L39.9228 29.875L40.455 33.0752L40.9482 32.9932L41.4415 32.9111L40.9092 29.7109L40.416 29.793ZM40.9482 32.9932L40.455 33.0753C40.5314 33.5339 40.5072 34.0044 40.3841 34.4524L40.8662 34.585L41.3483 34.7175C41.51 34.1294 41.5416 33.5124 41.4415 32.911L40.9482 32.9932ZM40.8662 34.585L40.3841 34.4524C40.2609 34.9002 40.0412 35.3165 39.7412 35.6713L40.123 35.9941L40.5049 36.317C40.8983 35.8517 41.1866 35.3056 41.3483 34.7176L40.8662 34.585ZM40.123 35.9941L39.7413 35.6712C39.4414 36.0258 39.0677 36.3111 38.6468 36.5065L38.8574 36.96L39.068 37.4135C39.6208 37.1568 40.1112 36.7823 40.5048 36.317L40.123 35.9941ZM38.8574 36.96L38.6469 36.5064C38.2785 36.6774 37.8809 36.7765 37.4767 36.7986L37.5039 37.2979L37.5312 37.7971C38.0623 37.7681 38.5843 37.638 39.0679 37.4135L38.8574 36.96ZM37.5039 37.2979L37.4918 36.798L37.2906 36.8029L37.3027 37.3027L37.3149 37.8026L37.516 37.7977L37.5039 37.2979ZM37.3027 37.3027V36.8027H31.5283V37.3027V37.8027H37.3027V37.3027ZM31.5283 37.3027L31.0329 37.2355C31.0092 37.4099 30.972 37.5816 30.9206 37.7482L31.3984 37.8955L31.8762 38.0428C31.9445 37.8213 31.9931 37.5959 32.0238 37.37L31.5283 37.3027ZM31.3984 37.8955L30.9207 37.7481C30.7869 38.1816 30.5624 38.5822 30.2626 38.9223L30.6377 39.2529L31.0128 39.5836C31.4063 39.1372 31.7008 38.6116 31.8762 38.0429L31.3984 37.8955ZM30.6377 39.2529L30.2627 38.9222C29.9629 39.2622 29.594 39.5345 29.1809 39.7211L29.3867 40.1768L29.5925 40.6324C30.1347 40.3876 30.619 40.0301 31.0127 39.5836L30.6377 39.2529ZM29.3867 40.1768L29.1809 39.7211C28.768 39.9075 28.3202 40.004 27.8672 40.0039L27.8672 40.5039L27.8671 41.0039C28.4621 41.004 29.0502 40.8773 29.5925 40.6324L29.3867 40.1768ZM27.8672 40.5039V40.0039H19.1309V40.5039V41.0039H27.8672V40.5039ZM19.1309 40.5039L19.1305 40.0039C18.6771 40.0042 18.2289 39.9082 17.816 39.722L17.6104 40.1777L17.4047 40.6335C17.9476 40.8784 18.5363 41.0043 19.1312 41.0039L19.1309 40.5039ZM17.6104 40.1777L17.816 39.722C17.4026 39.5355 17.0332 39.2631 16.7333 38.9231L16.3584 39.2539L15.9835 39.5847C16.3775 40.0313 16.8624 40.3888 17.4047 40.6335L17.6104 40.1777ZM16.3584 39.2539L16.7334 38.9232C16.4336 38.5833 16.2094 38.1823 16.0754 37.7481L15.5977 37.8955L15.1199 38.0429C15.2953 38.6115 15.5893 39.1377 15.9834 39.5846L16.3584 39.2539ZM15.5977 37.8955L16.0754 37.7482C16.0242 37.5819 15.9871 37.4101 15.9632 37.235L15.4678 37.3027L14.9724 37.3704C15.0032 37.5957 15.0514 37.821 15.1199 38.0429L15.5977 37.8955ZM15.4678 37.3027V36.8027H9.69629V37.3027V37.8027H15.4678V37.3027ZM9.69629 37.3027L9.69623 36.8027C9.23196 36.8028 8.77296 36.7017 8.35207 36.5064L8.1416 36.96L7.93114 37.4135C8.48428 37.6702 9.087 37.8028 9.69635 37.8027L9.69629 37.3027ZM8.1416 36.96L8.35211 36.5064C7.93124 36.3111 7.5578 36.026 7.25771 35.6712L6.87598 35.9941L6.49425 36.3171C6.88787 36.7824 7.37805 37.1568 7.9311 37.4135L8.1416 36.96ZM6.87598 35.9941L7.25775 35.6713C6.95769 35.3165 6.73815 34.9004 6.6149 34.4523L6.13281 34.585L5.65072 34.7176C5.8125 35.3057 6.10057 35.8516 6.4942 36.317L6.87598 35.9941ZM6.13281 34.585L6.61492 34.4524C6.49173 34.0044 6.46761 33.534 6.54399 33.0753L6.05078 32.9932L5.55757 32.911C5.45744 33.5125 5.48897 34.1293 5.6507 34.7175L6.13281 34.585ZM6.05078 32.9932L6.54403 33.075L7.07528 29.8749L6.58203 29.793L6.08878 29.7111L5.55753 32.9113L6.05078 32.9932ZM6.58203 29.793H7.08203V29.792H6.58203H6.08203V29.793H6.58203ZM6.58203 29.792L7.07523 29.8742C7.19976 29.1271 7.58518 28.4481 8.16233 27.9584L7.83887 27.5771L7.51541 27.1959C6.75788 27.8385 6.25224 28.7295 6.08884 29.7098L6.58203 29.792ZM7.83887 27.5771L8.16227 27.9585C8.73945 27.469 9.47211 27.2001 10.2285 27.2002L10.2285 26.7002L10.2286 26.2002C9.23515 26.2001 8.27325 26.5531 7.51546 27.1958L7.83887 27.5771ZM10.2285 26.7002V27.2002H10.7168V26.7002V26.2002H10.2285V26.7002ZM10.7168 26.7002L10.7164 27.2002L10.7168 27.2005L11.2168 27.2002L11.7168 27.1999C11.7165 26.648 11.2688 26.2006 10.7172 26.2002L10.7168 26.7002ZM11.2168 27.2002H10.7168L10.7164 27.2002L10.7168 27.7002L10.7172 28.2002C11.2686 28.1998 11.7168 27.7527 11.7168 27.2002H11.2168ZM10.7168 27.7002V27.2002H10.2275V27.7002V28.2002H10.7168V27.7002ZM10.2275 27.7002L10.2275 27.2002C9.4713 27.2002 8.73977 27.4695 8.16299 27.9585L8.48633 28.3398L8.80967 28.7212C9.20636 28.3849 9.70892 28.2002 10.2276 28.2002L10.2275 27.7002ZM8.48633 28.3398L8.16287 27.9586C7.58596 28.448 7.19972 29.1273 7.07516 29.8749L7.56836 29.957L8.06156 30.0392C8.14719 29.5253 8.41292 29.0578 8.80979 28.7211L8.48633 28.3398ZM7.56836 29.957L7.07511 29.8751L6.54386 33.0753L7.03711 33.1572L7.53036 33.2391L8.06161 30.0389L7.56836 29.957ZM7.03711 33.1572L6.5439 33.0751C6.46763 33.5332 6.49129 34.0033 6.61456 34.4518L7.09668 34.3193L7.5788 34.1868C7.49417 33.8789 7.47773 33.5552 7.53032 33.2393L7.03711 33.1572ZM7.09668 34.3193L6.61458 34.4519C6.73772 34.8997 6.95658 35.3164 7.2569 35.6715L7.63867 35.3486L8.02044 35.0258C7.81447 34.7822 7.66371 34.4956 7.57878 34.1868L7.09668 34.3193ZM7.63867 35.3486L7.25691 35.6715C7.55724 36.0266 7.9314 36.311 8.35198 36.5063L8.5625 36.0527L8.77302 35.5992C8.48335 35.4648 8.22632 35.2692 8.02043 35.0257L7.63867 35.3486ZM8.5625 36.0527L8.35204 36.5063C8.77328 36.7017 9.23247 36.8028 9.69635 36.8027L9.69629 36.3027L9.69623 35.8027C9.37746 35.8028 9.06198 35.7333 8.77296 35.5992L8.5625 36.0527ZM9.69629 36.3027V36.8027H15.4658V36.3027V35.8027H9.69629V36.3027ZM15.4658 36.3027L15.962 36.3647L16.9815 28.2056L16.4854 28.1436L15.9892 28.0816L14.9697 36.2407L15.4658 36.3027ZM16.4854 28.1436L16.9815 28.2055C17.1264 27.0449 17.6895 25.977 18.5647 25.2026L18.2334 24.8281L17.9021 24.4537C16.8444 25.3894 16.1642 26.6797 15.9892 28.0816L16.4854 28.1436ZM18.2334 24.8281L18.5647 25.2026C19.4402 24.4282 20.5685 24.0004 21.7365 24L21.7363 23.5L21.7362 23C20.324 23.0004 18.9602 23.5177 17.9021 24.4536L18.2334 24.8281ZM21.7363 23.5V24H25.2578V23.5V23H21.7363V23.5ZM21.7363 24.5L21.7362 24C20.5681 24.0004 19.4406 24.4283 18.5652 25.2026L18.8965 25.5771L19.2278 25.9517C19.9207 25.3387 20.8128 25.0003 21.7365 25L21.7363 24.5ZM18.8965 25.5771L18.5652 25.2027C17.69 25.9769 17.1263 27.0447 16.9814 28.2057L17.4775 28.2676L17.9737 28.3295C18.0884 27.4102 18.5348 26.5647 19.2278 25.9516L18.8965 25.5771ZM17.4775 28.2676L16.9814 28.2056L15.957 36.4068L16.4531 36.4688L16.9493 36.5307L17.9737 28.3296L17.4775 28.2676ZM16.4531 36.4688L15.957 36.407C15.9009 36.8574 15.9414 37.3146 16.0749 37.7479L16.5527 37.6006L17.0305 37.4533C16.9385 37.1548 16.9107 36.8401 16.9493 36.5305L16.4531 36.4688ZM16.5527 37.6006L16.075 37.748C16.2088 38.1817 16.4334 38.5823 16.7334 38.9225L17.1084 38.5918L17.4834 38.2611C17.2771 38.0272 17.1226 37.7515 17.0305 37.4532L16.5527 37.6006ZM17.1084 38.5918L16.7334 38.9225C17.0332 39.2624 17.4022 39.5357 17.8158 39.7224L18.0215 39.2666L18.2271 38.8109C17.9437 38.683 17.69 38.4953 17.4834 38.2611L17.1084 38.5918ZM18.0215 39.2666L17.8159 39.7224C18.2296 39.909 18.6779 40.0042 19.1302 40.0039L19.1299 39.5039L19.1296 39.0039C18.8179 39.0041 18.5101 38.9385 18.2271 38.8108L18.0215 39.2666ZM19.1299 39.5039V40.0039H27.8672V39.5039V39.0039H19.1299V39.5039ZM27.8672 39.5039L27.8671 40.0039C28.3198 40.004 28.7682 39.9079 29.1814 39.7213L28.9756 39.2656L28.7698 38.8099C28.4865 38.9379 28.1785 39.004 27.8673 39.0039L27.8672 39.5039ZM28.9756 39.2656L29.1815 39.7213C29.5942 39.5348 29.9629 39.2624 30.2627 38.9225L29.8877 38.5918L29.5127 38.2611C29.3067 38.4947 29.0532 38.6819 28.7697 38.81L28.9756 39.2656ZM29.8877 38.5918L30.2628 38.9224C30.5625 38.5824 30.7874 38.1817 30.9212 37.7479L30.4434 37.6006L29.9656 37.4532C29.8736 37.7513 29.7189 38.0272 29.5126 38.2612L29.8877 38.5918ZM30.4434 37.6006L30.9212 37.7479C31.055 37.3138 31.0942 36.8565 31.0382 36.4069L30.542 36.4688L30.0458 36.5306C30.0845 36.8409 30.0573 37.1557 29.9655 37.4533L30.4434 37.6006ZM30.542 36.4688L31.0382 36.4069L30.0157 28.2057L29.5195 28.2676L29.0234 28.3294L30.0458 36.5306L30.542 36.4688ZM29.5195 28.2676L30.0157 28.2056C29.8707 27.0441 29.3068 25.9759 28.4308 25.2016L28.0996 25.5762L27.7685 25.9508C28.462 26.5639 28.9086 27.4097 29.0234 28.3295L29.5195 28.2676ZM28.0996 25.5762L28.4307 25.2015C27.6094 24.4756 26.5667 24.0549 25.4768 24.0054L25.4541 24.5049L25.4314 25.0044C26.2935 25.0435 27.1184 25.3762 27.7685 25.9508L28.0996 25.5762ZM25.4541 24.5049L25.4665 24.005L25.2702 24.0002L25.2578 24.5L25.2454 24.9998L25.4417 25.0047L25.4541 24.5049ZM25.2578 24.5V24H21.7363V24.5V25H25.2578V24.5ZM10.7168 15.4971L10.7167 15.9971C12.4813 15.9973 13.9121 17.4306 13.9121 19.1982H14.4121H14.9121C14.9121 16.88 13.0353 14.9974 10.7169 14.9971L10.7168 15.4971ZM14.4121 19.1982L13.9121 19.1982C13.9119 20.9656 12.4813 22.3982 10.7167 22.3984L10.7168 22.8984L10.7169 23.3984C13.0351 23.3981 14.9119 21.5165 14.9121 19.1983L14.4121 19.1982ZM10.7168 22.8984L10.7168 22.3984C8.95217 22.3984 7.52167 20.9658 7.52148 19.1982L7.02148 19.1982L6.52148 19.1983C6.52173 21.5165 8.39834 23.3983 10.7168 23.3984L10.7168 22.8984ZM7.02148 19.1982H7.52148C7.52148 17.4304 8.95216 15.9972 10.7168 15.9971L10.7168 15.4971L10.7168 14.9971C8.39809 14.9972 6.52148 16.8799 6.52148 19.1982H7.02148ZM36.2812 15.4971L36.2812 15.9971C38.0459 15.9972 39.4766 17.4305 39.4766 19.1982H39.9766H40.4766C40.4766 16.8799 38.5999 14.9972 36.2813 14.9971L36.2812 15.4971ZM39.9766 19.1982L39.4766 19.1982C39.4764 20.9657 38.0458 22.3983 36.2812 22.3984L36.2812 22.8984L36.2813 23.3984C38.5996 23.3983 40.4763 21.5165 40.4766 19.1983L39.9766 19.1982ZM36.2812 22.8984L36.2813 22.3984C34.5166 22.3984 33.0861 20.9658 33.0859 19.1982L32.5859 19.1982L32.0859 19.1983C32.0862 21.5165 33.9628 23.3983 36.2812 23.3984L36.2812 22.8984ZM32.5859 19.1982H33.0859C33.0859 17.4304 34.5166 15.9972 36.2813 15.9971L36.2812 15.4971L36.2812 14.9971C33.9625 14.9972 32.0859 16.8799 32.0859 19.1982H32.5859ZM10.7168 16.4971L10.7168 15.9971C8.95201 15.9972 7.52148 17.4305 7.52148 19.1982H8.02148H8.52148C8.52148 17.9812 9.50597 16.9972 10.7168 16.9971L10.7168 16.4971ZM8.02148 19.1982L7.52148 19.1983C7.52174 20.9659 8.95231 22.3983 10.7168 22.3984L10.7168 21.8984L10.7168 21.3984C9.50594 21.3984 8.52166 20.415 8.52148 19.1982L8.02148 19.1982ZM10.7168 21.8984L10.7169 22.3984C12.4811 22.3981 13.9119 20.9659 13.9121 19.1983L13.4121 19.1982L12.9121 19.1982C12.9119 20.4148 11.9276 21.3982 10.7167 21.3984L10.7168 21.8984ZM13.4121 19.1982H13.9121C13.9121 17.4306 12.4814 15.9974 10.7169 15.9971L10.7168 16.4971L10.7167 16.9971C11.9275 16.9973 12.9121 17.9813 12.9121 19.1982H13.4121ZM36.2812 16.4971L36.2812 15.9971C34.5165 15.9972 33.0859 17.4305 33.0859 19.1982H33.5859H34.0859C34.0859 17.9812 35.0704 16.9972 36.2813 16.9971L36.2812 16.4971ZM33.5859 19.1982L33.0859 19.1983C33.0862 20.9659 34.5168 22.3983 36.2812 22.3984L36.2812 21.8984L36.2813 21.3984C35.0704 21.3984 34.0861 20.415 34.0859 19.1982L33.5859 19.1982ZM36.2812 21.8984L36.2813 22.3984C38.0457 22.3983 39.4763 20.9659 39.4766 19.1983L38.9766 19.1982L38.4766 19.1982C38.4764 20.4149 37.4921 21.3983 36.2812 21.3984L36.2812 21.8984ZM38.9766 19.1982H39.4766C39.4766 17.4306 38.046 15.9973 36.2813 15.9971L36.2812 16.4971L36.2812 16.9971C37.492 16.9972 38.4766 17.9812 38.4766 19.1982H38.9766ZM23.498 7.49512V7.99512C26.1453 7.99512 28.292 10.1452 28.292 12.7969H28.792H29.292C29.292 9.59448 26.6991 6.99512 23.498 6.99512V7.49512ZM28.792 12.7969L28.292 12.7968C28.2916 15.4482 26.1451 17.5977 23.498 17.5977V18.0977V18.5977C26.6988 18.5977 29.2916 15.999 29.292 12.7969L28.792 12.7969ZM23.498 18.0977L23.4981 17.5977C20.8514 17.5973 18.7054 15.448 18.7051 12.7968L18.2051 12.7969L17.7051 12.7969C17.7055 15.9987 20.2975 18.5972 23.498 18.5977L23.498 18.0977ZM18.2051 12.7969H18.7051C18.7051 10.1454 20.8512 7.99548 23.4981 7.99512L23.498 7.49512L23.498 6.99512C20.2972 6.99556 17.7051 9.59478 17.7051 12.7969H18.2051ZM23.498 8.49512L23.498 7.99512C20.8511 7.99557 18.7051 10.1454 18.7051 12.7969H19.2051H19.7051C19.7051 10.6961 21.405 8.99547 23.4981 8.99512L23.498 8.49512ZM19.2051 12.7969L18.7051 12.797C18.7055 15.4481 20.8514 17.5972 23.498 17.5977L23.498 17.0977L23.4981 16.5977C21.4052 16.5973 19.7054 14.8972 19.7051 12.7968L19.2051 12.7969ZM23.498 17.0977V17.5977C26.1449 17.5977 28.2916 15.4484 28.292 12.797L27.792 12.7969L27.292 12.7968C27.2916 14.8974 25.5913 16.5977 23.498 16.5977V17.0977ZM27.792 12.7969H28.292C28.292 10.1451 26.1452 7.99512 23.498 7.99512V8.49512V8.99512C25.5915 8.99512 27.292 10.6959 27.292 12.7969H27.792Z" fill="white"/>
</svg>
